HIERARCHY
ROOT Hips
{
  OFFSET 0 0 0
  CHANNELS 6 Xposition Yposition Zposition Zrotation Xrotation Yrotation
  JOINT RightUpLeg
  {
    OFFSET -30.9458 -8.66707 0
    CHANNELS 3 Zrotation Xrotation Yrotation
    JOINT RightLeg
    {
      OFFSET 0 -30.4227 0
      CHANNELS 3 Zrotation Xrotation Yrotation
      JOINT RightFoot
      {
        OFFSET 0.253549 -30.0923 -1.46059
        CHANNELS 3 Zrotation Xrotation Yrotation
        JOINT RightToeBase
        {
          OFFSET -8.17562e-005 -4.43172 20.4991
          CHANNELS 3 Zrotation Xrotation Yrotation
          End Site
          {
            OFFSET -0.0800001 -0.137448 10.7798
          }
        }
      }
    }
  }
  JOINT Spine
  {
    OFFSET 0 60.8905 0
    CHANNELS 3 Zrotation Xrotation Yrotation
    JOINT Spine1
    {
      OFFSET 0 60.6575 0.127663
      CHANNELS 3 Zrotation Xrotation Yrotation
      JOINT Neck
      {
        OFFSET 0 30.7342 20.0114
        CHANNELS 3 Zrotation Xrotation Yrotation
        JOINT Head
        {
          OFFSET 0 12.7742 2.51395
          CHANNELS 3 Zrotation Xrotation Yrotation
          End Site
          {
            OFFSET 0 0 0
          }
        }
      }
      JOINT LeftShoulder
      {
        OFFSET 40.9901 -0.362253 -0.22
        CHANNELS 3 Zrotation Xrotation Yrotation
        JOINT LeftArm
        {
          OFFSET 30.2827 8.00339 10.3221
          CHANNELS 3 Zrotation Xrotation Yrotation
          JOINT LeftForeArm
          {
            OFFSET 32.7669 0 5
            CHANNELS 3 Zrotation Xrotation Yrotation
            JOINT LeftHand
            {
              OFFSET 27.5643 -5 20
              CHANNELS 3 Zrotation Xrotation Yrotation
              End Site
              {
                OFFSET 16.7443 -20 10
              }
            }
          }
        }
      }
      JOINT RightShoulder
      {
        OFFSET -40.9901 -0.362253 5.22001
        CHANNELS 3 Zrotation Xrotation Yrotation
        JOINT RightArm
        {
          OFFSET -30.2827 -0.0033774 15.3221
          CHANNELS 3 Zrotation Xrotation Yrotation
          JOINT RightForeArm
          {
            OFFSET -32.8971 -10 5
            CHANNELS 3 Zrotation Xrotation Yrotation
            JOINT RightHand
            {
              OFFSET -27.4921 0 10
              CHANNELS 3 Zrotation Xrotation Yrotation
              End Site
              {
                OFFSET -16.6312 -10 10
              }
            }
          }
        }
      }
    }
  }
  JOINT LeftUpLeg
  {
    OFFSET 30.9458 -8.66707 0
    CHANNELS 3 Zrotation Xrotation Yrotation
    JOINT LeftLeg
    {
      OFFSET 0 -30.4227 0
      CHANNELS 3 Zrotation Xrotation Yrotation
      JOINT LeftFoot
      {
        OFFSET -0.253549 -30.0923 -1.46059
        CHANNELS 3 Zrotation Xrotation Yrotation
        JOINT LeftToeBase
        {
          OFFSET 0 -10.4317 20.4991
          CHANNELS 3 Zrotation Xrotation Yrotation
          End Site
          {
            OFFSET -5.08 -0.0474481 10.7798
          }
        }
      }
    }
  }
}
MOTION
Frames:	21
Frame Time:	0.00833333
7.01065 297.57 -45.0022 -3.50001 -14.3251 -133.395 -25.3129 -46.2391 -8.04496 -15.6422 53.8475 18.8662 -3.94928 -7.35496 -0.165369 2.25036 -19.4275 11.3897 5.99487 11.7041 1.04339 23.2475 -1.81504 -2.53542 -0.817574 41.7953 -8.73061 -8.8719 -23.3068 -10.2783 23.4985 2.58429 31.0072 -32.5914 -12.8426 -80.7626 -23.0121 -39.6012 -35.3396 11.8406 -8.05992 11.5127 25.65 -1.42004 -5.91567 35.7006 -59.8857 44.6295 -34.0957 36.5649 36.8341 -13.016 6.41909 4.94678 7.85171 -12.7789 1.02643 -14.8584 45.5578 20.6397 -8.36432 -17.5963 -1.02247 -3.48172 8.19925 39.9259 
6.90177 297.599 -44.8991 -3.42627 -14.3899 -133.865 -25.088 -46.4675 -7.81671 -15.7351 53.5713 19.1513 -3.93819 -7.16825 -0.158758 2.25389 -19.4088 11.4328 5.90052 11.687 0.991325 23.3401 -1.73603 -2.6299 -1.28016 42.536 -8.34292 -8.72696 -24.1528 -10.2728 23.5409 2.59386 31.0335 -32.6754 -12.4364 -81.1949 -23.0428 -39.5964 -35.3834 11.8929 -8.02225 11.4704 25.9391 -1.41951 -5.90847 36.2667 -59.8054 45.4871 -34.278 36.8902 37.1079 -13.0051 6.44014 4.98022 7.81405 -12.792 1.0749 -15.0877 45.5232 21.0248 -8.5742 -17.6448 -1.0528 -3.49712 8.22134 40.009 
6.79081 297.629 -44.8005 -3.36122 -14.4326 -134.344 -24.8324 -46.6767 -7.56533 -15.8165 53.3001 19.4282 -3.92493 -6.97921 -0.152292 2.25641 -19.4012 11.4561 5.83606 11.6947 0.935985 23.4006 -1.66366 -2.71697 -1.22624 42.4246 -8.28825 -9.14931 -24.0195 -10.1487 23.6048 2.60797 31.0566 -32.7935 -12.0065 -81.65 -22.8202 -39.5064 -35.2612 11.9547 -7.98276 11.4187 26.236 -1.41873 -5.90216 35.9343 -59.222 45.6991 -33.1513 35.5735 36.1189 -14.1554 5.98256 4.13104 7.7978 -12.7711 1.13956 -15.326 45.4816 21.3411 -8.71629 -17.6647 -1.07316 -3.48664 8.13879 40.1486 
6.68056 297.655 -44.7064 -3.29024 -14.4794 -134.821 -24.5701 -46.895 -7.30657 -15.9062 53.0441 19.7091 -3.92039 -6.81687 -0.146184 2.25685 -19.3662 11.4749 5.77162 11.6795 0.874847 23.4454 -1.56967 -2.81292 -1.05664 42.4382 -8.30604 -9.62262 -24.0895 -10.0517 23.7088 2.63046 31.0718 -32.9497 -11.5763 -82.0969 -22.5374 -39.3889 -35.1112 11.9297 -7.93628 11.363 26.6081 -1.41781 -5.88163 36.0445 -58.9558 46.2495 -32.7673 35.1651 35.8343 -14.6465 5.82373 3.81573 7.78341 -12.7448 1.20383 -15.5516 45.4248 21.618 -8.82817 -17.6658 -1.08831 -3.45187 7.98041 40.2789 
6.57756 297.675 -44.6163 -3.17092 -14.5341 -135.344 -24.2167 -47.1848 -6.98073 -16.0022 52.7888 19.9812 -3.92363 -6.66281 -0.139643 2.25379 -19.3002 11.4985 5.76355 11.6514 0.835464 23.4309 -1.47403 -2.87239 -0.629414 42.3726 -8.48735 -10.2971 -24.1359 -9.95418 23.8226 2.65361 31.0739 -33.1145 -11.1465 -82.557 -22.2552 -39.2698 -34.9657 11.9183 -7.84736 11.2576 27.0195 -1.41237 -5.85366 37.35 -59.3948 47.6179 -34.235 37.1159 37.3499 -13.7437 6.28185 4.651 7.85253 -12.7854 1.33262 -15.8291 45.4086 22.0376 -9.02952 -17.6445 -1.11237 -3.41119 7.87066 40.2087 
6.47942 297.695 -44.5387 -2.98836 -14.5919 -135.83 -23.8284 -47.4989 -6.65394 -16.0596 52.5342 20.2054 -3.91936 -6.50406 -0.133681 2.23975 -19.2302 11.4966 5.78036 11.5938 0.789713 23.4436 -1.39809 -2.93896 -0.241191 42.2031 -8.63919 -10.9814 -24.0982 -9.8387 23.9518 2.67734 31.0502 -33.3284 -10.703 -82.9914 -22.1836 -39.197 -35.0188 11.8212 -7.76422 11.17 27.3586 -1.40323 -5.81318 38.3535 -59.5827 48.711 -35.2031 38.3446 38.3624 -13.2153 6.50837 5.06292 7.98114 -12.862 1.4908 -16.0718 45.3926 22.4031 -9.20083 -17.6354 -1.13371 -3.36338 7.78363 39.9975 
6.36042 297.721 -44.4464 -3.02333 -14.6268 -136.262 -23.7009 -47.6054 -6.49611 -16.1432 52.3061 20.5058 -3.934 -6.38519 -0.127365 2.24241 -19.19 11.5503 5.64948 11.6225 0.686158 23.4769 -1.28263 -3.08381 0.246246 41.4241 -8.80436 -11.7852 -23.3424 -9.56237 24.0411 2.69259 31.0336 -33.6613 -10.1293 -83.6274 -20.6361 -38.6574 -33.9639 11.3355 -7.53886 10.913 27.7883 -1.39868 -5.79007 38.6204 -59.4373 49.3446 -35.1554 38.3889 38.4207 -13.2991 6.45839 4.97575 7.83901 -12.764 1.43953 -16.2042 45.3208 22.5805 -9.2697 -17.5408 -1.13501 -3.28719 7.47446 40.1755 
6.24161 297.744 -44.3596 -3.01599 -14.6816 -136.731 -23.5251 -47.769 -6.3083 -16.222 52.0562 20.816 -3.93269 -6.21211 -0.120498 2.25425 -19.2358 11.5884 5.54652 11.6077 0.603286 23.4895 -1.14984 -3.20717 0.762372 41.3711 -9.05223 -12.5386 -23.5142 -9.49723 24.1013 2.70001 31.0085 -33.8629 -9.64838 -84.1945 -20.3713 -38.5087 -33.916 11.368 -7.54954 10.9197 28.1584 -1.38672 -5.74109 39.0283 -59.3512 50.0063 -35.3168 38.6524 38.6608 -13.3089 6.49121 5.0256 7.73189 -12.6936 1.42658 -16.3543 45.2371 22.8879 -9.44753 -17.5156 -1.15528 -3.21883 7.26417 40.1307 
6.12968 297.762 -44.2833 -2.93855 -14.733 -137.2 -23.2733 -47.9906 -6.08618 -16.2776 51.8246 21.0833 -3.93494 -6.05786 -0.113968 2.26223 -19.2247 11.6519 5.50572 11.5552 0.522354 23.47 -1.00847 -3.32153 1.32397 41.5398 -9.29765 -13.2771 -24.0032 -9.45004 24.1981 2.71908 31.012 -34.0529 -9.15244 -84.7651 -20.1367 -38.3688 -33.8913 11.449 -7.60242 10.9723 28.6052 -1.37107 -5.68626 39.4073 -59.2938 50.6956 -35.548 39.0366 39.0042 -13.142 6.52354 5.09333 7.71057 -12.6814 1.45691 -16.5026 45.1966 23.2279 -9.64671 -17.4875 -1.17754 -3.14449 7.0979 39.8785 
6.01969 297.773 -44.2174 -2.78843 -14.8074 -137.729 -22.9123 -48.3141 -5.78234 -16.3412 51.5952 21.3378 -3.94953 -5.91712 -0.106627 2.2711 -19.1687 11.7621 5.54529 11.3758 0.460546 23.3725 -0.756165 -3.42435 1.69252 41.6282 -9.38102 -13.8112 -24.4536 -9.35316 24.2624 2.73086 31.0173 -34.1829 -8.69142 -85.3337 -19.7462 -38.1873 -33.721 11.526 -7.63594 10.9986 29.0606 -1.35439 -5.61576 39.4885 -59.056 51.1748 -35.2392 38.7866 38.8147 -13.4426 6.39432 4.85952 7.76324 -12.7379 1.55772 -16.6984 45.1752 23.5528 -9.82528 -17.4742 -1.19831 -3.09038 6.93591 39.8212 
5.89203 297.798 -44.1466 -2.78017 -14.8207 -138.145 -22.7628 -48.4065 -5.64475 -16.3474 51.3609 21.5808 -3.95271 -5.78284 -0.100783 2.29038 -19.2047 11.8583 5.46524 11.3273 0.354368 23.3908 -0.605178 -3.57616 2.14882 41.6122 -9.55591 -14.4421 -24.7039 -9.27149 24.3309 2.73 30.9076 -34.2756 -8.24854 -85.8584 -19.2091 -37.9979 -33.3657 11.5488 -7.65769 11.0102 29.4353 -1.34195 -5.56932 40.0394 -59.0739 51.8838 -35.7302 39.4208 39.3726 -13.2162 6.48134 5.01941 7.65438 -12.6416 1.51654 -16.7589 45.1097 23.7629 -9.97596 -17.4565 -1.21504 -3.03317 6.7658 39.7561 
5.78407 297.811 -44.0874 -2.56486 -14.8729 -138.642 -22.3355 -48.719 -5.32345 -16.3521 51.1073 21.7733 -3.95683 -5.6297 -0.0940601 2.29842 -19.1872 11.9279 5.52629 11.1895 0.309528 23.3838 -0.451652 -3.65472 2.36239 41.59 -9.57522 -14.9053 -25.0161 -9.19509 24.4049 2.72407 30.7452 -34.3922 -7.83948 -86.2961 -18.554 -37.7049 -32.8981 11.5564 -7.68061 11.0213 29.7348 -1.31428 -5.47102 40.6861 -59.0584 52.6487 -36.2067 39.9854 39.8818 -13.0471 6.53895 5.12656 7.77364 -12.7346 1.64363 -16.9351 45.1262 23.9667 -10.0705 -17.4886 -1.22976 -3.00028 6.63853 39.815 
5.68905 297.837 -44.0055 -2.5589 -14.782 -139.04 -22.0575 -48.732 -5.09852 -16.3278 50.87 21.9475 -3.9475 -5.4866 -0.0892691 2.32155 -19.2255 12.0476 5.51717 11.4576 0.201967 23.3922 -0.520845 -3.73962 2.71913 41.5414 -9.656 -15.4524 -25.3047 -9.08863 24.5389 2.72779 30.5504 -34.4868 -7.43842 -86.6491 -18.523 -37.4227 -32.7174 11.5524 -7.607 10.9452 30.0749 -1.2915 -5.39152 40.9191 -58.9299 53.0873 -36.3028 40.2 40.0912 -12.9968 6.49627 5.06573 7.74549 -12.5956 1.61236 -16.9593 45.101 24.128 -10.1867 -17.4367 -1.23897 -2.90099 6.33427 39.7258 
5.57926 297.858 -43.9335 -2.51553 -14.7268 -139.446 -21.7778 -48.8051 -4.88241 -16.3074 50.6542 22.1569 -3.96241 -5.36212 -0.0823979 2.32608 -19.219 12.084 5.5357 11.5694 0.0662407 23.318 -0.374477 -3.88735 4.11511 41.0799 -10.3432 -16.8495 -25.5105 -8.95419 24.6734 2.77405 30.7128 -34.5621 -6.92211 -87.6435 -18.1653 -37.341 -32.1919 11.4771 -7.59141 10.9411 30.7367 -1.29076 -5.38988 41.4225 -58.8654 54.0218 -36.5898 40.6114 40.4777 -12.9784 6.5033 5.07845 7.73027 -12.5142 1.59693 -17.0116 45.1034 24.3703 -10.3639 -17.4369 -1.26007 -2.85415 6.23441 39.53 
5.46629 297.872 -43.8763 -2.4076 -14.7372 -139.854 -21.5077 -48.9749 -4.68488 -16.2894 50.4542 22.3435 -3.98037 -5.26352 -0.0761096 2.33279 -19.1847 12.1604 5.5394 11.5368 -0.0444003 23.2731 -0.218555 -4.02542 5.36798 40.697 -10.9605 -18.1407 -25.7087 -8.85061 24.8187 2.80164 30.6975 -34.7196 -6.36429 -88.2774 -17.9683 -37.0513 -31.9487 11.4171 -7.53663 10.8903 31.2837 -1.29032 -5.37352 41.9383 -58.7881 54.8467 -36.9077 41.029 40.8752 -13.0005 6.50271 5.07491 7.72636 -12.5052 1.60878 -17.0877 45.1086 24.4966 -10.4595 -17.5657 -1.28424 -2.89054 6.31343 39.6775 
5.3428 297.88 -43.8282 -2.22517 -14.8482 -140.268 -21.2796 -49.2723 -4.54083 -16.2716 50.2448 22.5575 -3.99696 -5.12931 -0.0684833 2.34127 -19.1944 12.2083 5.5541 11.3094 -0.133493 23.2234 0.00460926 -4.16329 5.2291 40.3723 -10.6867 -18.1762 -25.8103 -8.66425 24.9028 2.81825 30.7085 -34.845 -5.8296 -88.6866 -17.981 -36.7125 -32.0126 11.3981 -7.47157 10.8241 31.745 -1.28978 -5.37612 41.8868 -58.4315 55.2184 -36.2513 40.3914 40.3227 -13.7988 6.38838 4.80921 7.71362 -12.615 1.63976 -17.1776 45.0878 24.596 -10.5021 -17.5488 -1.28802 -2.79996 5.9499 39.8976 
5.23842 297.882 -43.7927 -2.12466 -14.9049 -140.691 -21.019 -49.4954 -4.335 -16.2885 50.0826 22.7674 -4.0115 -5.03083 -0.0625214 2.35313 -19.1832 12.2981 5.40063 11.1816 -0.201684 23.3336 0.20239 -4.31258 5.91979 39.7811 -10.9471 -19.0474 -25.7438 -8.50322 24.9658 2.81827 30.623 -34.8843 -5.46763 -88.9495 -18.1556 -36.5444 -32.1864 11.5573 -7.1929 10.4984 32.1361 -1.28923 -5.36825 42.2313 -58.2277 55.8095 -36.2532 40.466 40.4099 -13.9648 6.32558 4.69141 7.70454 -12.6276 1.66729 -17.2678 45.0673 24.7873 -10.6306 -17.5617 -1.30484 -2.74737 5.78075 39.8782 
5.13545 297.885 -43.7619 -2.04345 -14.9589 -141.121 -20.7638 -49.7056 -4.131 -16.3043 49.9261 23.0032 -4.04168 -4.94074 -0.0548571 2.36079 -19.1638 12.3678 5.23473 11.0689 -0.264392 23.4335 0.412025 -4.45661 7.17892 38.475 -11.4679 -20.5145 -24.9721 -8.14324 25.0249 2.82715 30.618 -34.9643 -4.85038 -89.6301 -17.9467 -36.3846 -31.9697 11.6674 -7.10493 10.3946 32.585 -1.28864 -5.38252 42.7658 -58.1285 56.5709 -36.6345 40.9652 40.8793 -13.963 6.36373 4.75154 7.68268 -12.6217 1.69426 -17.3804 45.0477 24.9176 -10.7165 -17.6625 -1.32556 -2.77278 5.80401 40.1024 
5.00802 297.896 -43.7222 -1.99055 -14.9916 -141.534 -20.5589 -49.8668 -3.97136 -16.3173 49.7743 23.2215 -4.07993 -4.87873 -0.0517821 2.37058 -19.0956 12.4981 5.16543 10.9959 -0.362361 23.4528 0.622968 -4.61241 7.81129 37.7589 -11.6563 -21.373 -24.9398 -7.96682 24.9578 2.80012 30.5566 -34.7841 -4.51398 -90.1266 -18.2167 -36.6966 -32.1983 11.8003 -7.07714 10.3572 32.976 -1.28805 -5.41571 43.2682 -57.9799 57.266 -36.9555 41.4058 41.303 -14.0126 6.40295 4.80746 7.59279 -12.5679 1.66196 -17.4254 45.0024 25.0438 -10.8289 -17.688 -1.34147 -2.72487 5.6083 40.2453 
4.8712 297.906 -43.6767 -2.01358 -14.9872 -141.963 -20.3989 -49.9357 -3.83113 -16.3265 49.5998 23.5019 -4.1192 -4.77656 -0.0482446 2.38651 -19.1562 12.5474 5.08521 11.0116 -0.46387 23.4361 0.756988 -4.74547 8.25244 37.3644 -11.7595 -21.9798 -25.1257 -7.85918 24.9959 2.79301 30.461 -34.6642 -4.0754 -90.5603 -18.6987 -37.2606 -32.7202 11.9821 -7.05057 10.3169 33.3297 -1.28766 -5.39646 43.5837 -57.8414 57.7326 -37.1756 41.7329 41.6298 -14.1062 6.40749 4.79993 7.43963 -12.4484 1.5782 -17.467 44.9715 25.1951 -10.9869 -17.8064 -1.37224 -2.7461 5.61415 40.4874 
4.75906 297.911 -43.6479 -1.92832 -15.0075 -142.382 -20.0961 -50.1109 -3.59274 -16.3335 49.4436 23.6923 -4.14138 -4.67809 -0.0444118 2.40322 -19.1636 12.6522 5.03247 10.9809 -0.535248 23.4305 0.865448 -4.84501 8.60856 37.2486 -11.8346 -22.45 -25.716 -7.86109 25.009 2.75856 30.1871 -34.6797 -3.52714 -91.1214 -19.1821 -37.8666 -33.4529 12.1886 -7.15675 10.4283 33.6717 -1.28738 -5.37573 43.8818 -57.6979 58.1357 -37.3588 41.9973 41.8988 -14.2588 6.4138 4.79512 7.41406 -12.4156 1.58677 -17.5239 44.9529 25.2833 -11.0754 -17.885 -1.39066 -2.74705 5.57017 40.6684 
